<?xml version="1.0" encoding="UTF-8"?>
<svg version="1.1" xmlns="http://www.w3.org/2000/svg" width="200" height="250">
<path d="M0 0 C5.312876 4.43743753 10.25737163 9.11957049 15.13842773 14.02490234 C15.91973557 14.80606415 16.7010434 15.58722595 17.50602722 16.39205933 C20.0675958 18.95432017 22.62561188 21.52009637 25.18359375 24.0859375 C26.96699007 25.87120044 28.75060846 27.65624158 30.53443909 29.44107056 C34.73639203 33.64644123 38.93611407 37.85403107 43.13474089 42.06272185 C47.91879277 46.85798931 52.70571793 51.65038414 57.49287498 56.44255137 C67.33176179 66.29186304 77.16707255 76.14473914 87 86 C83.86646183 88.54679168 80.92753197 90.75199639 77.3125 92.5625 C76.54550781 92.95566406 75.77851562 93.34882813 74.98828125 93.75390625 C66.73049563 97.19734888 59.25879307 98.55683612 50.3125 98.5 C49.26102783 98.49427979 48.20955566 98.48855957 47.1262207 98.48266602 C33.69716111 98.17654654 22.79199707 94.07702925 12 86 C11.22140625 85.42765625 10.4428125 84.8553125 9.640625 84.265625 C-1.4060858 75.35207215 -8.52250231 61.85662797 -11 48 C-12.36492593 29.76270691 -10.13203908 15.53958802 0 0 Z " fill="#3C4975" transform="translate(42,86)"/>
<path d="M0 0 C0.66 0 1.32 0 2 0 C2.66 0.70125 3.32 1.4025 4 2.125 C11.5209615 9.91062877 22.60503929 14.74097788 33.25 15.4375 C36.28125 15.83203125 36.28125 15.83203125 39 17 C41.82826174 21.06826456 43.49040308 25.29906222 45 30 C46.87945312 30.03867188 46.87945312 30.03867188 48.796875 30.078125 C50.44795123 30.13441169 52.09899155 30.1917589 53.75 30.25 C54.9875 30.27126953 54.9875 30.27126953 56.25 30.29296875 C57.04921875 30.32519531 57.8484375 30.35742188 58.671875 30.390625 C59.77160645 30.4220459 59.77160645 30.4220459 60.89355469 30.45410156 C63 31 63 31 67 35 C67 40.94 67 46.88 67 53 C35.65 53 4.3 53 -28 53 C-28 35 -28 35 -24 31 C-21.203125 30.609375 -21.203125 30.609375 -18.25 30.75 C-17.26515625 30.78609375 -16.2803125 30.8221875 -15.265625 30.859375 C-14.51796875 30.90578125 -13.7703125 30.9521875 -13 31 C-12.83709473 30.47792969 -12.67418945 29.95585937 -12.50634766 29.41796875 C-10.47980061 23.11622137 -8.00694749 17.07045954 -5.375 11 C-4.96765625 10.04738281 -4.5603125 9.09476563 -4.140625 8.11328125 C-1.13375235 1.13375235 -1.13375235 1.13375235 0 0 Z " fill="#3C4975" transform="translate(41,185)"/>
<path d="M0 0 C27.98514945 0.06393948 52.18523004 11.86401506 72.35083008 31.06787109 C90.17472948 49.39385217 100.51243419 74.206596 100.41333008 99.69287109 C100.41719727 100.70671875 100.42106445 101.72056641 100.42504883 102.76513672 C100.42375977 103.72742188 100.4224707 104.68970703 100.42114258 105.68115234 C100.42001465 106.55940674 100.41888672 107.43766113 100.41772461 108.3425293 C100.28833008 110.38037109 100.28833008 110.38037109 99.28833008 111.38037109 C97.83273638 111.47895712 96.37225089 111.51009252 94.91333008 111.50537109 C94.1218457 111.50794922 93.33036133 111.51052734 92.51489258 111.51318359 C90.28833008 111.38037109 90.28833008 111.38037109 87.28833008 110.38037109 C87.1985791 109.71207275 87.10882813 109.04377441 87.01635742 108.35522461 C83.05854235 79.62779602 74.67959345 53.43233493 50.85083008 35.00537109 C35.43145538 23.60145856 19.8583472 17.76341738 1.06787109 14.67260742 C0.21378662 14.52976318 -0.64029785 14.38691895 -1.52026367 14.23974609 C-2.28137451 14.12083008 -3.04248535 14.00191406 -3.82666016 13.87939453 C-5.71166992 13.38037109 -5.71166992 13.38037109 -7.71166992 11.38037109 C-7.97729492 9.28662109 -7.97729492 9.28662109 -7.96166992 6.88037109 C-7.96682617 6.08630859 -7.97198242 5.29224609 -7.97729492 4.47412109 C-7.37268568 -0.29162234 -4.06256907 0.08293747 0 0 Z " fill="#3C4975" transform="translate(98.711669921875,15.61962890625)"/>
<path d="M0 0 C18.78221746 1.9759808 35.69505971 9.59111487 49 23 C49.86625 23.804375 50.7325 24.60875 51.625 25.4375 C63.24455438 37.97438762 72.78409372 53.84820196 74.28125 71.2734375 C74.1884375 72.17320313 74.095625 73.07296875 74 74 C70.83759418 76.10827055 69.49342531 76.33817465 65.8125 76.625 C64.46091797 76.73714844 64.46091797 76.73714844 63.08203125 76.8515625 C62.39496094 76.90054688 61.70789063 76.94953125 61 77 C59.63334452 73.06624841 58.50423715 69.11667214 57.45410156 65.08813477 C52.60982173 47.09772116 41.86523102 32.66353724 25.78857422 22.99316406 C16.8396636 18.02399011 6.96900791 15.1163257 -3 13 C-2.88557539 11.39504433 -2.75805306 9.79101881 -2.625 8.1875 C-2.55539063 7.29417969 -2.48578125 6.40085937 -2.4140625 5.48046875 C-2 3 -2 3 0 0 Z " fill="#3C4975" transform="translate(95,46)"/>
<path d="M0 0 C12.55381007 0.91300437 23.36985728 7.53911508 32.01171875 16.52734375 C37.54793518 23.41226517 42.00841408 31.36979433 44 40 C43.625 42.9375 43.625 42.9375 43 45 C38.84055256 46.30492469 35.34963091 47.12019705 31 47 C30.85304687 46.39414063 30.70609375 45.78828125 30.5546875 45.1640625 C27.63708341 34.26496676 22.45449762 25.44168351 13 19 C9.08447741 17.06440204 5.08753434 15.52617056 1 14 C-0.34342412 13.3539088 -1.68138574 12.69532629 -3 12 C-2.14285714 3.42857143 -2.14285714 3.42857143 0 0 Z " fill="#3C4975" transform="translate(95,76)"/>
<path d="M0 0 C2.93565908 2.4563678 4.60586675 4.19824802 5.4375 8 C5.66725159 11.7909013 5.10032986 13.84950521 3 17 C2.34 17.66 1.68 18.32 1 19 C-3.32504836 17.34136495 -6.09418825 14.128959 -9.25 10.875 C-9.80429688 10.31167969 -10.35859375 9.74835938 -10.9296875 9.16796875 C-12.29104485 7.78313972 -13.64614859 6.39216796 -15 5 C-14.02691702 2.56729255 -13.34831384 1.23564573 -11.15234375 -0.25 C-7.32156364 -1.58486349 -3.84490284 -1.15620744 0 0 Z " fill="#3C4975" transform="translate(99,112)"/>
<path d="" fill="#4781C8" transform="translate(0,0)"/>
</svg>
