<?xml version="1.0" encoding="UTF-8"?>
<svg version="1.1" xmlns="http://www.w3.org/2000/svg" width="512" height="512">
<path d="M0 0 C168.96 0 337.92 0 512 0 C512 168.96 512 337.92 512 512 C343.04 512 174.08 512 0 512 C0 343.04 0 174.08 0 0 Z " fill="#F65E1E" transform="translate(0,0)"/>
<path d="M0 0 C1.42045876 -0.0010952 1.42045876 -0.0010952 2.86961365 -0.00221252 C5.98674628 0.00125939 9.10236804 0.04010267 12.21923828 0.0793457 C14.38541854 0.08867521 16.55160937 0.09579067 18.71780396 0.1007843 C24.40951849 0.11984303 30.10059153 0.16893493 35.79205322 0.2243042 C41.60363081 0.27552048 47.4153124 0.29830348 53.22705078 0.32348633 C64.62316542 0.37705411 76.01880468 0.46235392 87.41455078 0.56762695 C87.42956255 2.45375121 87.44016797 4.33991079 87.44897461 6.22607422 C87.45855949 7.80159813 87.45855949 7.80159813 87.46833801 9.40895081 C87.38733094 14.16612254 86.77815054 18.80141027 86.10205078 23.50512695 C85.96597412 24.49456299 85.82989746 25.48399902 85.68969727 26.50341797 C85.40803476 28.54096617 85.12265273 30.57800376 84.83349609 32.61450195 C84.44278891 35.36857774 84.06354823 38.12395145 83.68798828 40.88012695 C82.39496572 50.26166465 80.93081975 59.60498182 79.35205078 68.94262695 C76.9584996 83.14114561 75.1328896 97.18194689 74.41455078 111.56762695 C73.75455078 111.56762695 73.09455078 111.56762695 72.41455078 111.56762695 C72.43557861 112.13070557 72.45660645 112.69378418 72.47827148 113.27392578 C72.62991911 120.73454077 71.69449794 127.88607428 70.60205078 135.25512695 C70.26103709 137.61303096 69.92123622 139.97111063 69.58251953 142.3293457 C69.39866699 143.60922363 69.21481445 144.88910156 69.02539062 146.20776367 C66.58482462 163.46257038 64.51174008 180.76854596 62.41455078 198.06762695 C59.63763087 220.97360045 56.69858972 243.85019071 53.46142578 266.69580078 C51.85421864 278.05507211 50.41455078 289.06893157 50.41455078 300.56762695 C56.02455078 302.54762695 61.63455078 304.52762695 67.41455078 306.56762695 C67.41455078 307.22762695 67.41455078 307.88762695 67.41455078 308.56762695 C68.40068359 308.71458008 68.40068359 308.71458008 69.40673828 308.86450195 C76.6808966 310.00786559 83.83601448 311.49618625 91.00585938 313.15844727 C95.46482422 314.18129931 99.8761194 314.98608423 104.41455078 315.56762695 C104.40294922 314.74520508 104.39134766 313.9227832 104.37939453 313.07543945 C104.2327326 294.93126332 104.2327326 294.93126332 106.41455078 290.56762695 C106.63592689 289.04676088 106.80832981 287.51861731 106.95532227 285.98876953 C107.04889511 285.03629837 107.14246796 284.08382721 107.23887634 283.10249329 C107.33680984 282.06618271 107.43474335 281.02987213 107.53564453 279.9621582 C107.64046646 278.89076096 107.74528839 277.81936371 107.85328674 276.71549988 C108.18995759 273.27072806 108.52143683 269.82548498 108.85205078 266.38012695 C109.49271974 259.73052301 110.13946793 253.0820796 110.828125 246.43725586 C111.19409764 242.89899971 111.5085769 239.36858276 111.73925781 235.8190918 C111.85075377 234.48914953 111.96253977 233.15923152 112.07470703 231.8293457 C112.14439697 230.73968506 112.21408691 229.65002441 112.28588867 228.52734375 C114.03321397 223.94529213 117.08690892 221.75733527 121.41455078 219.56762695 C125.67675504 218.74111168 129.83441793 218.80714597 134.16455078 218.88647461 C135.4239296 218.88559845 136.68330841 218.88472229 137.98085022 218.88381958 C141.41260803 218.88210725 144.84309191 218.91722942 148.27455521 218.95926332 C151.86859827 218.99692717 155.4626748 219.00030792 159.05688477 219.00741577 C165.85322229 219.02601905 172.6489765 219.07519367 179.44505787 219.13551271 C187.1862468 219.20271965 194.9274645 219.23560229 202.66887283 219.26568532 C218.58443592 219.32829771 234.49941795 219.43374332 250.41455078 219.56762695 C249.45800858 220.68927689 248.5006587 221.81023808 247.54296875 222.9309082 C246.74341263 223.86737183 246.74341263 223.86737183 245.92770386 224.82275391 C244.2011027 226.81376187 242.40697326 228.70821916 240.53955078 230.56762695 C239.94400391 231.16575195 239.34845703 231.76387695 238.73486328 232.38012695 C236.85194305 234.1552706 234.93858411 235.82975372 232.97070312 237.50708008 C228.00916313 241.84199722 223.37555874 246.49297035 218.7386322 251.16838074 C217.15881945 252.76116186 215.57572492 254.35061853 213.99182129 255.93933105 C210.62988217 259.31260008 207.27191259 262.68980297 203.91455078 266.06762695 C200.01857729 269.98734531 196.1209154 273.90535437 192.21897888 277.81913757 C190.67273523 279.37177933 189.12957698 280.92744098 187.58654785 282.48327637 C186.62246559 283.45099694 185.65823938 284.41857414 184.69384766 285.38598633 C183.45096985 286.63671936 183.45096985 286.63671936 182.1829834 287.91271973 C180.66255164 289.37080299 179.12073123 290.81091028 177.49815845 292.15440464 C172.53529297 296.26722082 169.24744029 300.38463847 165.9465332 305.88964844 C147.33476245 335.41913354 120.58242889 372.45397932 84.28398895 380.85808563 C53.81093584 387.01359586 21.68607344 385.70069565 -9.21044922 384.69262695 C-10.83438874 384.64087759 -10.83438874 384.64087759 -12.49113512 384.58808279 C-40.90980319 383.66440952 -69.25519185 381.97867638 -97.58544922 379.56762695 C-97.83727632 342.01235439 -98.03108002 304.4572091 -98.14716784 266.90126291 C-98.16092547 262.46656322 -98.17516303 258.03186518 -98.18969727 253.59716797 C-98.19258268 252.71430679 -98.1954681 251.83144561 -98.19844095 250.92183106 C-98.24629405 236.63016247 -98.33301731 222.33898103 -98.43412998 208.04760135 C-98.53703011 193.38115734 -98.59810257 178.71496831 -98.62042266 164.04817814 C-98.63550984 154.99906002 -98.68314041 145.95131884 -98.77253035 136.90262466 C-98.83071846 130.69589085 -98.84824162 124.48986785 -98.83396437 118.28288115 C-98.82692369 114.70217604 -98.83763795 111.12387464 -98.89670944 107.54359818 C-99.25199794 84.91160211 -99.25199794 84.91160211 -95.19585609 79.97532463 C-92.40867831 77.67137134 -89.81413492 76.15821399 -86.58544922 74.56762695 C-84.33348211 72.61963415 -84.33348211 72.61963415 -82.51123047 70.65356445 C-81.91060791 70.0414209 -81.30998535 69.42927734 -80.69116211 68.79858398 C-80.09940186 68.18611816 -79.5076416 67.57365234 -78.89794922 66.94262695 C-74.52076176 62.48114627 -70.1223714 58.19807976 -65.33935547 54.16918945 C-63.25219645 52.26332042 -61.43775264 50.20188022 -59.58544922 48.06762695 C-56.54946512 44.5736027 -53.39415728 41.52892571 -49.87451172 38.5324707 C-40.1906315 30.22019809 -31.16085598 21.2414869 -22.20922852 12.15454102 C-21.05161011 10.9842334 -21.05161011 10.9842334 -19.87060547 9.7902832 C-19.18877197 9.09684814 -18.50693848 8.40341309 -17.80444336 7.68896484 C-17.07217529 6.98892334 -16.33990723 6.28888184 -15.58544922 5.56762695 C-14.74738235 4.71058167 -13.90931549 3.85353638 -13.04585266 2.97052002 C-8.99474051 -0.35885458 -5.05807266 -0.10268884 0 0 Z " fill="#DD3E04" transform="translate(97.58544921875,132.432373046875)"/>
<path d="M0 0 C2.48537069 -0.01515903 4.97070745 -0.0371809 7.45596313 -0.06549072 C13.46998734 -0.11529364 19.47944604 -0.09130833 25.49302295 -0.03078839 C32.51060323 0.03711344 39.52736582 0.02375505 46.5451735 0.00883529 C59.07278808 -0.01460566 71.59878762 0.04172 84.12597656 0.140625 C96.25484669 0.23637294 108.38156186 0.26460346 120.51074219 0.22265625 C133.75579974 0.17693125 146.99986401 0.16939899 160.24491 0.22704864 C161.65923221 0.23315132 163.0735545 0.23923275 164.48787689 0.24529266 C165.18355255 0.24832392 165.87922821 0.25135518 166.59598495 0.25447829 C171.47685334 0.27337642 176.35727506 0.26609757 181.23813629 0.24903107 C187.81541507 0.22716852 194.39016226 0.27061881 200.96705246 0.35684967 C203.37430949 0.37902949 205.78185297 0.38106555 208.18912888 0.36103821 C228.25037496 0.21511474 228.25037496 0.21511474 234.77444339 6.14975715 C237.11081358 8.63567693 239.07059639 11.22818563 241.05761719 14.00683594 C242.57056155 15.80516929 244.0901003 17.59800529 245.62011719 19.38183594 C246.67005859 20.72568359 246.67005859 20.72568359 247.74121094 22.09667969 C249.4740313 24.27366311 251.22934953 26.32708584 253.09277344 28.38574219 C254.12295495 29.57173724 255.1529057 30.75793278 256.18261719 31.94433594 C256.68092041 32.46882324 257.17922363 32.99331055 257.69262695 33.53369141 C260.7863788 37.19689606 261.34161599 39.77871807 260.98730469 44.56152344 C260.70490809 46.71374817 260.39333059 48.86228106 260.05761719 51.00683594 C259.90566895 52.15450439 259.7537207 53.30217285 259.59716797 54.48461914 C259.11869364 58.06044343 258.594205 61.62680467 258.05761719 65.19433594 C257.87972656 66.41958984 257.70183594 67.64484375 257.51855469 68.90722656 C257.25945312 70.64842773 257.25945312 70.64842773 256.99511719 72.42480469 C256.83914063 73.47434326 256.68316406 74.52388184 256.52246094 75.60522461 C256.05761719 78.00683594 256.05761719 78.00683594 255.05761719 79.00683594 C254.56250351 81.88980776 254.12260369 84.76312824 253.71777344 87.65917969 C253.59075546 88.5473085 253.46373749 89.43543732 253.33287048 90.35047913 C253.06275565 92.24598094 252.7947205 94.14178006 252.52856445 96.0378418 C252.13000536 98.87397209 251.72429218 101.70900256 251.31738281 104.54394531 C249.96574054 114.0384793 248.73806216 123.5315199 247.71937561 133.06758118 C247.17352818 138.12837543 246.48134027 143.12748999 245.55761719 148.13183594 C244.44250596 154.24656673 243.61638653 160.373359 242.86265564 166.54336548 C242.24574489 171.56931519 241.57817545 176.58613695 240.87402344 181.60058594 C240.77272629 182.32245087 240.67142914 183.0443158 240.56706238 183.78805542 C240.25206456 186.02774109 239.9361493 188.267296 239.62011719 190.50683594 C237.95743031 202.3058569 236.34996565 214.1047613 235.04614258 225.95019531 C234.94293701 226.83513672 234.83973145 227.72007812 234.73339844 228.63183594 C234.65001221 229.38722656 234.56662598 230.14261719 234.48071289 230.92089844 C233.49940603 235.7589168 231.20769781 237.93338087 227.37011719 240.88183594 C221.7628489 245.33510178 216.55261321 250.11610802 211.36157227 255.04541016 C210.75982178 255.61533691 210.15807129 256.18526367 209.53808594 256.77246094 C208.74760864 257.5270459 208.74760864 257.5270459 207.94116211 258.296875 C207.31959229 258.86116211 206.69802246 259.42544922 206.05761719 260.00683594 C205.28319778 260.85513977 204.50877838 261.7034436 203.71089172 262.57745361 C199.04042616 266.41683775 193.48407466 265.66837005 187.72167969 265.58691406 C186.48198425 265.5893663 185.24228882 265.59181854 183.96502686 265.59434509 C181.27652311 265.59651629 178.58979569 265.5897582 175.90155029 265.56785583 C171.64824343 265.5338984 167.39548965 265.53809486 163.14208984 265.54797363 C153.34655299 265.56493951 143.55130121 265.53219574 133.75582886 265.49904633 C124.77524592 265.46916745 115.7949714 265.44985414 106.81434441 265.47071218 C102.58902602 265.47909288 98.36470324 265.46334137 94.13952637 265.42891693 C90.89085723 265.40857023 87.64226445 265.42033154 84.39355469 265.42675781 C83.22765808 265.41027695 82.06176147 265.39379608 80.86053467 265.3768158 C74.10895664 265.3352609 74.10895664 265.3352609 68.41162109 268.54309082 C67.6347998 269.35612671 66.85797852 270.1691626 66.05761719 271.00683594 C65.39761719 271.00683594 64.73761719 271.00683594 64.05761719 271.00683594 C64.09628906 272.13476562 64.13496094 273.26269531 64.17480469 274.42480469 C64.17180977 282.09628313 63.07372723 289.71108378 62.18261719 297.31933594 C61.81200094 300.5417501 61.44456394 303.76452423 61.07714844 306.98730469 C60.98723129 307.77177979 60.89731415 308.55625488 60.80467224 309.36450195 C60.00020316 316.41702506 59.28698824 323.47708948 58.65380859 330.54711914 C58.16254478 335.79698075 58.16254478 335.79698075 57.05761719 338.00683594 C56.83686878 339.744164 56.66631081 341.48802001 56.52246094 343.23339844 C56.43544922 344.26464844 56.3484375 345.29589844 56.25878906 346.35839844 C56.17177734 347.43863281 56.08476562 348.51886719 55.99511719 349.63183594 C55.90423828 350.71980469 55.81335938 351.80777344 55.71972656 352.92871094 C55.49535768 355.6211375 55.27481605 358.31382302 55.05761719 361.00683594 C48.62434908 361.35018452 42.81185133 360.05725678 36.55761719 358.63183594 C35.55085938 358.41011719 34.54410156 358.18839844 33.50683594 357.95996094 C28.30232927 356.8003723 23.16419116 355.54167699 18.05761719 354.00683594 C18.05761719 353.34683594 18.05761719 352.68683594 18.05761719 352.00683594 C17.19910156 351.8946875 16.34058594 351.78253906 15.45605469 351.66699219 C11.92129159 350.9803543 8.98158595 349.87388907 5.68261719 348.44433594 C4.62300781 347.98929687 3.56339844 347.53425781 2.47167969 347.06542969 C1.67503906 346.71609375 0.87839844 346.36675781 0.05761719 346.00683594 C-0.20430696 338.21895805 0.68345436 330.65134888 1.65673828 322.94287109 C1.93019163 320.77605583 2.19579098 318.60839431 2.45996094 316.44042969 C3.22140086 310.25261394 4.02399614 304.07766641 5.01074219 297.92089844 C6.42783213 288.93162522 7.456091 279.89084599 8.54400635 270.8571167 C9.2051466 265.36997448 9.87359012 259.88372259 10.54199219 254.39746094 C10.67344635 253.31769989 10.80490051 252.23793884 10.94033813 251.12545776 C12.42544414 238.95094599 13.9950362 226.78814306 15.58544922 214.62695312 C16.35182171 208.7511665 17.10722227 202.8739677 17.86383057 196.99691772 C19.58073933 183.66501285 21.31395735 170.33526606 23.05761719 157.00683594 C23.71761719 157.00683594 24.37761719 157.00683594 25.05761719 157.00683594 C25.03078857 156.05486328 25.00395996 155.10289062 24.97631836 154.12207031 C24.77614866 143.70959307 25.78985485 133.78476266 27.37011719 123.50683594 C27.58658736 122.02911391 27.80208373 120.5512489 28.01660156 119.07324219 C29.1722589 111.22243761 30.51768208 103.42681158 32.01875305 95.63517761 C33.11280038 89.8855333 33.89492465 84.13221311 34.55761719 78.31933594 C35.85496621 67.17975271 37.4701665 56.11899073 39.05761719 45.00683594 C6.38761719 45.00683594 -26.28238281 45.00683594 -59.94238281 45.00683594 C-57.32682785 38.46794853 -53.21646363 33.51796779 -48.94238281 28.00683594 C-48.04712891 26.79833984 -48.04712891 26.79833984 -47.13378906 25.56542969 C-45.95359805 24.01199341 -44.73120884 22.48982755 -43.47141647 21.00021744 C-42.11498037 19.3947304 -40.76762145 17.77997957 -39.48495722 16.11496305 C-27.97079751 1.35167889 -18.1094005 -0.31662825 0 0 Z " fill="#FEFDFD" transform="translate(146.9423828125,86.9931640625)"/>
<path d="M0 0 C1.99441379 -0.00217778 3.98882628 -0.0065816 5.98323059 -0.0131073 C10.15190644 -0.01889981 14.31952621 -0.00001185 18.48803711 0.03686523 C23.82843714 0.08243301 29.16679978 0.06971877 34.50724316 0.03905773 C38.62092076 0.02125902 42.73412141 0.03249751 46.8477726 0.05269814 C48.81692883 0.05920848 50.78613324 0.05710509 52.75527 0.04619408 C55.50617318 0.03565286 58.2540426 0.06378533 61.00463867 0.10229492 C61.8156604 0.09172058 62.62668213 0.08114624 63.46228027 0.07025146 C66.57309264 0.14615946 68.80499088 0.21587666 71.33980942 2.12296009 C73.3056832 4.30412314 74.5757231 6.34049284 75.25436401 9.20393372 C75.21151276 9.94334702 75.1686615 10.68276031 75.12451172 11.44458008 C75.07872986 12.30862457 75.032948 13.17266907 74.98577881 14.06289673 C74.45766008 19.42774808 73.79467911 24.75778521 73.02734375 30.09375 C72.76810623 31.94538506 72.76810623 31.94538506 72.50363159 33.83442688 C72.04591566 37.08910552 71.58174864 40.34278281 71.1151123 43.59619141 C70.83167326 45.5845426 70.55289023 47.57348788 70.27587891 49.56274414 C69.74030311 53.40722619 69.19762292 57.25063336 68.65234375 61.09375 C68.40534225 62.86270882 68.40534225 62.86270882 68.15335083 64.66740417 C67.34770952 70.2478481 66.27696003 75.47419973 64.70703125 80.89453125 C64.12007182 84.31099675 63.69392216 87.74361915 63.26953125 91.18359375 C63.14392822 92.16387543 63.0183252 93.1441571 62.88891602 94.15414429 C62.48986028 97.27531696 62.09808877 100.39734731 61.70703125 103.51953125 C61.44454538 105.59381777 61.18152938 107.66803727 60.91796875 109.7421875 C60.78994873 110.75110046 60.66192871 111.76001343 60.5300293 112.79949951 C60.15214743 115.7491439 59.76383657 118.69729072 59.375 121.64550781 C58.9646875 124.77533013 58.59985507 127.89792135 58.3203125 131.04199219 C58.20042969 132.17668945 58.08054687 133.31138672 57.95703125 134.48046875 C57.8796875 135.40649902 57.80234375 136.3325293 57.72265625 137.28662109 C56.15061706 141.32328519 53.3474333 143.62150921 49.70703125 145.89453125 C46.6944022 146.71197664 43.83873149 146.71759592 40.72998047 146.67089844 C39.8591684 146.68141235 38.98835632 146.69192627 38.09115601 146.70275879 C35.23060037 146.72903421 32.37229447 146.7117359 29.51171875 146.69140625 C27.51587499 146.69545072 25.52003411 146.7012761 23.52420044 146.70880127 C19.34966783 146.71763023 15.17590744 146.70484195 11.00146484 146.67675781 C5.65323062 146.64252781 0.3068 146.66229257 -5.04136848 146.6981926 C-9.15930769 146.71987941 -13.27681947 146.71297187 -17.39477158 146.69742584 C-19.36673065 146.69342707 -21.33872868 146.69832221 -23.31064224 146.71230316 C-26.06637595 146.72755867 -28.81919067 146.70430213 -31.57470703 146.67089844 C-32.3872998 146.68304382 -33.19989258 146.69518921 -34.03710938 146.70770264 C-37.1666494 146.63748203 -39.39255767 146.58447041 -41.92780685 144.64183807 C-44.51633793 141.73495347 -45.28614863 139.96211247 -45.6796875 136.0625 C-45.5860455 134.67035555 -45.45638894 133.28021838 -45.29296875 131.89453125 C-45.22029785 131.23146973 -45.14762695 130.5684082 -45.07275391 129.88525391 C-44.79123088 127.6515562 -44.45308177 125.43139318 -44.10546875 123.20703125 C-43.82527053 121.32835588 -43.54675999 119.44942836 -43.26953125 117.5703125 C-43.11387695 116.5179541 -42.95822266 115.4655957 -42.79785156 114.38134766 C-41.81001232 107.55914262 -40.89954199 100.72626995 -39.98046875 93.89453125 C-39.76881604 92.32527437 -39.55714585 90.75601985 -39.34545898 89.18676758 C-38.13522901 80.2051521 -36.93611438 71.22207736 -35.7421875 62.23828125 C-35.61110092 61.25255127 -35.48001434 60.26682129 -35.34495544 59.2512207 C-34.58743213 53.55418354 -33.83131885 47.85696653 -33.07945251 42.15917969 C-32.84306771 40.38965501 -32.60196596 38.62075355 -32.35597229 36.85253906 C-31.72213279 32.28263717 -31.1666351 27.72193191 -30.72753906 23.12890625 C-30.6245047 22.18390259 -30.52147034 21.23889893 -30.41531372 20.26525879 C-30.22046745 18.47378346 -30.05217482 16.67912565 -29.91647339 14.88220215 C-29.40606574 10.49748199 -28.36123325 7.22521941 -25.44750977 3.85083008 C-18.42737749 -1.52677816 -8.37998287 -0.08279246 0 0 Z " fill="#C53903" transform="translate(268.29296875,145.10546875)"/>
<path d="M0 0 C0.87884354 -0.00087616 1.75768707 -0.00175232 2.66316223 -0.00265503 C5.54793354 0.00150202 8.43033578 0.04806326 11.31469727 0.09521484 C13.32250193 0.10641372 15.33032306 0.11495064 17.33815002 0.12094116 C22.60751078 0.14378498 27.87586983 0.20267021 33.14483643 0.26916504 C38.52749076 0.33068341 43.91030789 0.35797659 49.29321289 0.38818359 C59.84378177 0.45241748 70.39360915 0.55474331 80.94360352 0.68115234 C80.94360352 1.01115234 80.94360352 1.34115234 80.94360352 1.68115234 C79.84414902 1.67591553 78.74469452 1.67067871 77.61192322 1.6652832 C67.23898768 1.62109341 56.86677825 1.61897504 46.49381161 1.6578064 C41.16110975 1.67642381 35.82924986 1.68033565 30.49658203 1.65039062 C25.34787668 1.62202379 20.20057622 1.63261174 15.05194283 1.66995239 C13.09001517 1.67738593 11.12798271 1.67089835 9.16615105 1.65011597 C-1.25560515 1.15662946 -1.25560515 1.15662946 -10.81700134 4.41674805 C-14.13558415 8.07743033 -15.93583077 11.72056822 -16.49389648 16.68115234 C-16.61635742 17.62990234 -16.73881836 18.57865234 -16.86499023 19.55615234 C-16.9281543 20.25740234 -16.99131836 20.95865234 -17.05639648 21.68115234 C-17.38639648 21.68115234 -17.71639648 21.68115234 -18.05639648 21.68115234 C-18.48098562 9.58036206 -18.48098562 9.58036206 -14.70315456 5.06300926 C-9.90477793 0.61032572 -6.43519773 -0.17003668 0 0 Z " fill="#CA592E" transform="translate(257.056396484375,145.31884765625)"/>
<path d="M0 0 C0.66 0.33 1.32 0.66 2 1 C1.27683594 1.67482422 1.27683594 1.67482422 0.5390625 2.36328125 C-4.82427705 7.82513111 -6.31928173 12.44263798 -7 20 C-7.33 20 -7.66 20 -8 20 C-8.18976097 14.59181225 -8.11160333 10.08704439 -6 5 C-4.12383404 3.02403798 -2.23163826 1.60095788 0 0 Z " fill="#D57550" transform="translate(247,147)"/>
</svg>
