<?xml version="1.0" encoding="UTF-8"?>
<!DOCTYPE svg PUBLIC "-//W3C//DTD SVG 1.1//EN" "http://www.w3.org/Graphics/SVG/1.1/DTD/svg11.dtd">
<svg xmlns="http://www.w3.org/2000/svg" version="1.1" width="512px" height="512px" style="shape-rendering:geometricPrecision; text-rendering:geometricPrecision; image-rendering:optimizeQuality; fill-rule:evenodd; clip-rule:evenodd" xmlns:xlink="http://www.w3.org/1999/xlink">
<g><path style="opacity:0.996" fill="#fefefe" d="M 213.5,-0.5 C 241.5,-0.5 269.5,-0.5 297.5,-0.5C 330.561,0.723637 363.227,5.55697 395.5,14C 437.814,25.3693 468.648,50.5359 488,89.5C 501.463,123.356 508.63,158.523 509.5,195C 510.149,201.266 510.815,207.433 511.5,213.5C 511.5,241.5 511.5,269.5 511.5,297.5C 510.766,308.044 509.766,318.711 508.5,329.5C 508.68,330.554 509.013,331.554 509.5,332.5C 508.466,339.952 507.133,347.285 505.5,354.5C 505.931,355.293 506.265,356.127 506.5,357C 504.704,368.12 502.204,379.287 499,390.5C 496.501,397.33 494.001,404.163 491.5,411C 491.833,411.333 492.167,411.667 492.5,412C 487.7,420.214 483.366,428.714 479.5,437.5C 477.493,439.008 475.826,440.842 474.5,443C 474.833,443.333 475.167,443.667 475.5,444C 472.538,446.287 470.371,449.12 469,452.5C 465.156,454.5 462.656,457.5 461.5,461.5C 457.5,462.656 454.5,465.156 452.5,469C 435.681,481.243 417.348,490.576 397.5,497C 383.881,500.173 370.381,503.34 357,506.5C 356.127,506.265 355.293,505.931 354.5,505.5C 347.236,507.149 339.903,508.482 332.5,509.5C 331.707,509.069 330.873,508.735 330,508.5C 319.048,509.75 308.215,510.75 297.5,511.5C 269.5,511.5 241.5,511.5 213.5,511.5C 207.433,510.815 201.266,510.149 195,509.5C 194.586,509.957 194.086,510.291 193.5,510.5C 179.1,508.937 164.766,506.937 150.5,504.5C 125.33,501.59 100.663,493.756 76.5,481C 43.5022,460.237 22.3356,430.737 13,392.5C 5.29126,361.144 0.791258,329.477 -0.5,297.5C -0.5,269.5 -0.5,241.5 -0.5,213.5C 0.723637,180.439 5.55697,147.773 14,115.5C 29.3401,61.5593 64.1735,27.3927 118.5,13C 149.856,5.29126 181.523,0.791258 213.5,-0.5 Z"/></g>
<g><path style="opacity:1" fill="#fd8691" d="M 250.5,103.5 C 260.65,101.203 268.15,104.536 273,113.5C 275.045,129.788 267.879,137.288 251.5,136C 239.952,129.301 237.452,120.134 244,108.5C 246.326,106.934 248.492,105.268 250.5,103.5 Z"/></g>
<g><path style="opacity:1" fill="#9d75d2" d="M 209.5,150.5 C 200.472,150.32 191.472,150.653 182.5,151.5C 187.401,149.948 192.568,149.281 198,149.5C 202.015,149.501 205.849,149.835 209.5,150.5 Z"/></g>
<g><path style="opacity:1" fill="#8148cf" d="M 209.5,150.5 C 215.245,150.703 220.578,152.036 225.5,154.5C 168.165,161.331 131.998,192.665 117,248.5C 115.805,259.133 115.305,269.8 115.5,280.5C 99.3861,242.184 105.219,207.517 133,176.5C 146.742,162.712 163.242,154.379 182.5,151.5C 191.472,150.653 200.472,150.32 209.5,150.5 Z"/></g>
<g><path style="opacity:1" fill="#fbb65f" d="M 350.5,276.5 C 350.035,226.403 327.702,189.57 283.5,166C 277.655,163.33 271.655,161.164 265.5,159.5C 290.012,146.015 314.679,146.182 339.5,160C 371.333,181.828 381.5,211.328 370,248.5C 365.585,259.394 359.085,268.727 350.5,276.5 Z"/></g>
<g><path style="opacity:1" fill="#592acd" d="M 225.5,154.5 C 226.833,154.5 228.167,154.5 229.5,154.5C 237.953,157.543 245.953,161.543 253.5,166.5C 249.197,169.971 245.364,173.971 242,178.5C 241.667,179.833 241.333,181.167 241,182.5C 239.488,183.257 238.154,184.257 237,185.5C 228.974,201.205 226.307,217.871 229,235.5C 232.275,245.688 235.775,255.688 239.5,265.5C 230.253,273.095 224.253,282.762 221.5,294.5C 217.578,303.195 216.578,312.195 218.5,321.5C 218.5,322.167 218.5,322.833 218.5,323.5C 218.704,326.518 219.037,329.518 219.5,332.5C 181.388,339.11 149.888,327.777 125,298.5C 122.632,293.736 119.798,289.402 116.5,285.5C 116.634,283.708 116.301,282.042 115.5,280.5C 115.305,269.8 115.805,259.133 117,248.5C 131.998,192.665 168.165,161.331 225.5,154.5 Z"/></g>
<g><path style="opacity:1" fill="#4171f1" d="M 229.5,154.5 C 241.201,154.573 252.534,156.24 263.5,159.5C 260.319,161.592 257.319,163.925 254.5,166.5C 254.167,166.5 253.833,166.5 253.5,166.5C 245.953,161.543 237.953,157.543 229.5,154.5 Z"/></g>
<g><path style="opacity:1" fill="#d4995b" d="M 263.5,159.5 C 264.167,159.5 264.833,159.5 265.5,159.5C 271.655,161.164 277.655,163.33 283.5,166C 327.702,189.57 350.035,226.403 350.5,276.5C 350.167,277.167 349.833,277.833 349.5,278.5C 347.973,278.427 346.973,279.094 346.5,280.5C 345.833,280.833 345.167,281.167 344.5,281.5C 344.167,281.5 343.833,281.5 343.5,281.5C 343.039,279.45 342.372,277.45 341.5,275.5C 330.381,262.614 316.714,253.781 300.5,249C 297.518,248.502 294.518,248.335 291.5,248.5C 291.5,248.167 291.5,247.833 291.5,247.5C 291.74,241.773 291.407,236.106 290.5,230.5C 290.956,225.404 289.956,220.738 287.5,216.5C 287.047,212.307 285.881,208.307 284,204.5C 281.433,198.931 278.433,193.597 275,188.5C 268.251,180.923 261.417,173.59 254.5,166.5C 257.319,163.925 260.319,161.592 263.5,159.5 Z"/></g>
<g><path style="opacity:1" fill="#7933ae" d="M 253.5,166.5 C 253.833,166.5 254.167,166.5 254.5,166.5C 261.417,173.59 268.251,180.923 275,188.5C 278.433,193.597 281.433,198.931 284,204.5C 285.881,208.307 287.047,212.307 287.5,216.5C 288.509,221.283 289.509,225.95 290.5,230.5C 291.407,236.106 291.74,241.773 291.5,247.5C 285.491,247.334 279.491,247.501 273.5,248C 262.435,249.87 252.769,254.37 244.5,261.5C 242.427,262.3 240.76,263.633 239.5,265.5C 235.775,255.688 232.275,245.688 229,235.5C 226.307,217.871 228.974,201.205 237,185.5C 238.154,184.257 239.488,183.257 241,182.5C 241.333,181.167 241.667,179.833 242,178.5C 245.364,173.971 249.197,169.971 253.5,166.5 Z"/></g>
<g><path style="opacity:1" fill="#9a578c" d="M 287.5,216.5 C 289.956,220.738 290.956,225.404 290.5,230.5C 289.509,225.95 288.509,221.283 287.5,216.5 Z"/></g>
<g><path style="opacity:1" fill="#4f82f4" d="M 407.5,240.5 C 425.79,238.958 434.29,247.291 433,265.5C 427.729,277.149 418.896,281.315 406.5,278C 395.443,271.416 392.277,262.249 397,250.5C 399.738,246.26 403.238,242.926 407.5,240.5 Z"/></g>
<g><path style="opacity:1" fill="#e34c70" d="M 291.5,247.5 C 291.5,247.833 291.5,248.167 291.5,248.5C 289.345,256.738 287.512,265.071 286,273.5C 281.975,278.926 279.142,284.926 277.5,291.5C 277.167,291.5 276.833,291.5 276.5,291.5C 269.876,289.103 263.709,285.77 258,281.5C 252.312,277.304 247.146,271.971 242.5,265.5C 243.18,264.14 243.847,262.807 244.5,261.5C 252.769,254.37 262.435,249.87 273.5,248C 279.491,247.501 285.491,247.334 291.5,247.5 Z"/></g>
<g><path style="opacity:1" fill="#f5605f" d="M 291.5,248.5 C 294.518,248.335 297.518,248.502 300.5,249C 316.714,253.781 330.381,262.614 341.5,275.5C 342.372,277.45 343.039,279.45 343.5,281.5C 343.586,282.496 343.252,283.329 342.5,284C 336.973,285.76 331.64,288.094 326.5,291C 315.43,294.703 304.097,296.37 292.5,296C 287.198,295.399 282.198,293.899 277.5,291.5C 279.142,284.926 281.975,278.926 286,273.5C 287.512,265.071 289.345,256.738 291.5,248.5 Z"/></g>
<g><path style="opacity:1" fill="#9463d5" d="M 81.5,263.5 C 89.2008,263.362 92.3674,267.029 91,274.5C 86.3333,281.167 81.6667,281.167 77,274.5C 75.3926,269.438 76.8926,265.772 81.5,263.5 Z"/></g>
<g><path style="opacity:1" fill="#dc4a77" d="M 244.5,261.5 C 243.847,262.807 243.18,264.14 242.5,265.5C 247.146,271.971 252.312,277.304 258,281.5C 263.709,285.77 269.876,289.103 276.5,291.5C 264.272,311.283 246.938,324.283 224.5,330.5C 224.587,333.598 224.087,333.932 223,331.5C 222.333,332.833 221.667,332.833 221,331.5C 220.721,328.543 219.887,325.877 218.5,323.5C 218.5,322.833 218.5,322.167 218.5,321.5C 218.285,312.345 219.285,303.345 221.5,294.5C 224.253,282.762 230.253,273.095 239.5,265.5C 240.76,263.633 242.427,262.3 244.5,261.5 Z"/></g>
<g><path style="opacity:1" fill="#6871d8" d="M 346.5,280.5 C 348.256,281.552 348.923,283.219 348.5,285.5C 348.5,286.5 348.5,287.5 348.5,288.5C 348.167,288.5 347.833,288.5 347.5,288.5C 345.707,286.574 344.707,284.241 344.5,281.5C 345.167,281.167 345.833,280.833 346.5,280.5 Z"/></g>
<g><path style="opacity:1" fill="#acb8e2" d="M 349.5,278.5 C 349.802,281.059 349.468,283.393 348.5,285.5C 348.923,283.219 348.256,281.552 346.5,280.5C 346.973,279.094 347.973,278.427 349.5,278.5 Z"/></g>
<g><path style="opacity:1" fill="#fc8892" d="M 373.5,285.5 C 382.544,284.713 386.71,288.713 386,297.5C 383.647,302.426 379.814,304.26 374.5,303C 369.268,300.367 367.435,296.201 369,290.5C 370.707,288.963 372.207,287.296 373.5,285.5 Z"/></g>
<g><path style="opacity:1" fill="#d6587e" d="M 343.5,281.5 C 343.833,281.5 344.167,281.5 344.5,281.5C 344.707,284.241 345.707,286.574 347.5,288.5C 339.856,333.134 315.189,364.134 273.5,381.5C 272.5,381.5 271.5,381.5 270.5,381.5C 250.182,376.016 235.015,364.016 225,345.5C 223.666,340.846 221.833,336.513 219.5,332.5C 219.037,329.518 218.704,326.518 218.5,323.5C 219.887,325.877 220.721,328.543 221,331.5C 221.667,332.833 222.333,332.833 223,331.5C 224.087,333.932 224.587,333.598 224.5,330.5C 246.938,324.283 264.272,311.283 276.5,291.5C 276.833,291.5 277.167,291.5 277.5,291.5C 282.198,293.899 287.198,295.399 292.5,296C 304.097,296.37 315.43,294.703 326.5,291C 331.64,288.094 336.973,285.76 342.5,284C 343.252,283.329 343.586,282.496 343.5,281.5 Z"/></g>
<g><path style="opacity:1" fill="#fd7683" d="M 347.5,288.5 C 347.833,288.5 348.167,288.5 348.5,288.5C 356.65,313.931 352.817,337.264 337,358.5C 319.727,376.98 298.56,384.646 273.5,381.5C 315.189,364.134 339.856,333.134 347.5,288.5 Z"/></g>
<g><path style="opacity:1" fill="#3770f4" d="M 116.5,285.5 C 119.798,289.402 122.632,293.736 125,298.5C 149.888,327.777 181.388,339.11 219.5,332.5C 221.833,336.513 223.666,340.846 225,345.5C 235.015,364.016 250.182,376.016 270.5,381.5C 214.13,397.654 168.63,381.987 134,334.5C 124.905,319.385 119.072,303.052 116.5,285.5 Z"/></g>
<g><path style="opacity:1" fill="#ad3f98" d="M 221.5,294.5 C 219.285,303.345 218.285,312.345 218.5,321.5C 216.578,312.195 217.578,303.195 221.5,294.5 Z"/></g>
<g><path style="opacity:1" fill="#fac277" d="M 114.5,359.5 C 124.44,358.274 128.94,362.607 128,372.5C 122.132,381.272 115.798,381.605 109,373.5C 107.268,367.314 109.101,362.647 114.5,359.5 Z"/></g>
</svg>
